<svg viewBox="0 0 623 577" fill="none" xmlns="http://www.w3.org/2000/svg">
<path fill-rule="evenodd" clip-rule="evenodd" d="M81.0749 356.357C136.689 487.462 379.322 564.39 442.639 458.118C505.956 351.846 345.745 332.56 289.111 222.742C232.476 112.924 188.467 44.3824 106.635 69.4012C24.8021 94.4199 25.4607 225.253 81.0749 356.357Z" fill="#6259FF"/>
<path fill-rule="evenodd" clip-rule="evenodd" d="M473.62 441.455C562.568 400.003 609.71 231.062 535.003 190.014C460.295 148.966 450.866 259.76 376.602 301.403C302.337 343.046 256.194 375.001 275.391 430.754C294.588 486.507 384.671 482.907 473.62 441.455Z" fill="#F9818E"/>
<path d="M374.247 247.876L389.795 232.036" stroke="white" stroke-width="5" stroke-linecap="round" stroke-linejoin="bevel"/>
<path d="M438.974 255.915L420.643 240.519" stroke="white" stroke-width="5" stroke-linecap="round" stroke-linejoin="bevel"/>
<path d="M406.871 277.039L396.744 298.73" stroke="white" stroke-width="5" stroke-linecap="round" stroke-linejoin="bevel"/>
<path d="M132.376 361.913C186.618 361.913 230.59 317.941 230.59 263.699C230.59 209.456 186.618 165.484 132.376 165.484C78.1338 165.484 34.1619 209.456 34.1619 263.699C34.1619 317.941 78.1338 361.913 132.376 361.913Z" fill="#FFAF7E"/>
</svg>
